
	<svg xmlns="http://www.w3.org/2000/svg" xmlns:xlink="http://www.w3.org/1999/xlink" version="1.1" width="128" height="128" viewBox="0 0 100 100">


		<defs>
			<g id="background">
<path fill="url(#background-gradient)" stroke="none" d=" M 100 18.4 Q 100 10.8 94.6 5.4 89.05 0 81.6 0 L 18.4 0 Q 10.8 0 5.4 5.4 0 10.8 0 18.4 L 0 81.6 Q 0 89.05 5.4 94.6 10.8 100 18.4 100 L 81.6 100 Q 89.05 100 94.6 94.6 100 89.05 100 81.6 L 100 18.4 Z"/>
</g><g id="middle-1">
<path fill="#000000" fill-opacity="0.4" stroke="none" d=" M 100 75.4 Q 99.8 82.4 94.6 87.75 89.2 93.15 81.6 93.15 L 18.4 93.15 Q 10.8 93.15 5.4 87.75 0.2 82.5 0 75.4 L 0 81.65 Q 0 89.2 5.4 94.6 10.8 100 18.4 100 L 81.6 100 Q 89.2 100 94.6 94.6 100 89.1 100 81.65 L 100 75.4 Z"/>
</g><mask id="mask">
<path fill="#FFFFFF" stroke="none" d=" M 100 18.4 Q 100 10.8 94.6 5.4 89.05 0 81.6 0 L 18.4 0 Q 10.8 0 5.4 5.4 0 10.8 0 18.4 L 0 75.4 Q 0.2 82.5 5.4 87.75 10.8 93.15 18.4 93.15 L 81.6 93.15 Q 89.2 93.15 94.6 87.75 99.8 82.4 100 75.4 L 100 18.4 Z"/>
</mask>
			
	<linearGradient id="background-gradient" x1="0" y1="0" y2="1" x2="0" >
		<stop stop-color="#6AD232" offset="0%"/>
		<stop stop-color="#6AD232" offset="100%"/>
	</linearGradient>

			
			
			<g transform="scale(2.049180359905749) translate(0 0.35037851333618164)" id="picture"><path d="M19.2 33.9c0-3.6-2-6.7-4.9-8.4v-8.8c1-.3 1.7-1.2 1.7-2.3 0-1.4-1.1-2.5-2.5-2.5H5.7c-1.4 0-2.5 1.1-2.5 2.5 0 1.1.7 2 1.7 2.3v8.8C2 27.2 0 30.3 0 33.9c0 5.3 4.3 9.6 9.6 9.6s9.6-4.3 9.6-9.6zM6.5 35.4c-.7 0-1.2-.5-1.2-1.2S5.8 33 6.5 33s1.2.5 1.2 1.2-.6 1.2-1.2 1.2zm2.7-6.5c0-1 .8-1.8 1.9-1.8 1 0 1.9.8 1.9 1.8s-.8 1.9-1.9 1.9c-1 0-1.9-.9-1.9-1.9zm3.6 9.4c-.6 0-1.1-.5-1.1-1.1 0-.6.5-1.1 1.1-1.1s1.1.5 1.1 1.1c0 .6-.5 1.1-1.1 1.1zM7.9 5.6a1.1 1.1 0 1 1-2.2 0 1.1 1.1 0 1 1 2.2 0zm5.5 2.8a1.8 1.8 0 1 1-3.6 0 1.8 1.8 0 1 1 3.6 0zm-4.9 2.1a.7.7 0 1 1-1.4 0 .7.7 0 1 1 1.4 0z M13.1 37.2a.3.3 0 1 1-.6 0 .3.3 0 1 1 .6 0zm34.3 2.1L35.9 20.6c0-.1-.1-.1-.1-.2v-9.7h.6c.5 0 1-.4 1-1V7.6c0-.5-.4-1-1-1H20.6c-.5 0-1 .4-1 1v2.1c0 .5.4 1 1 1h.6v9.7s-.1.1-.1.2l-3.9 6.3c.5.5.9 1.1 1.3 1.7l4.3-6.9s0-.1.1-.1c.2-.3.3-.7.3-1.1v-9.7h10.6v9.7c0 .4.1.8.3 1.1l.1.1 11.5 18.7c.4.6.4.9.3 1 0 0-.3.2-1 .2H16.6c-.9.8-1.9 1.5-3 2H45c2.7-.1 3.8-2 2.4-4.3z M20.5 35c-.2 0-.4 0-.5-.1-.2 2-1 3.9-2.1 5.4h26.4l-4.7-7.6c-3.9 1-7.7.9-10-.6-2.4-1.6-6.7-1.5-10-1.1.1.5.3 1 .3 1.5.2-.1.4-.1.6-.1.7 0 1.3.6 1.3 1.3 0 .7-.6 1.3-1.3 1.3zm17.7 2.2c.4 0 .8.4.8.8s-.4.8-.8.8-.8-.4-.8-.8c0-.5.4-.8.8-.8zm-5.5-2.5c.7 0 1.3.6 1.3 1.3 0 .7-.6 1.3-1.3 1.3-.7 0-1.3-.6-1.3-1.3 0-.7.6-1.3 1.3-1.3zm-3.9 2.8c.5 0 .9.4.9.9s-.4.9-.9.9-.9-.4-.9-.9c0-.6.4-.9.9-.9zm-1.3-4c.2 0 .4.2.4.4s-.2.4-.4.4-.4-.2-.4-.4c.1-.2.2-.4.4-.4zM23.9 35c.4 0 .7.3.7.7 0 .4-.3.7-.7.7-.4 0-.7-.3-.7-.7 0-.3.3-.7.7-.7z"/></g>
			
	<linearGradient id="picture-gradient" x1="0" y1="0" y2="1" x2="0" >
		<stop stop-color="#ffffff" offset="0%"/>
		<stop stop-color="#e5eff9" offset="100%"/>
	</linearGradient>

		</defs>

		

			<use xlink:href="#background" fill="url(#background-gradient)" />

		<use xlink:href="#middle-1" />

			<g mask="url(#mask)">
				<g transform="
				        translate(
                                50 45
)
                            translate(0 0)  scale(0.63)  
                            translate(
                                -50 -45
)">
						<use xlink:href="#picture" fill="url(#picture-gradient)"  />
				</g>
			</g>

		



	</svg>
